<?xml version="1.0" encoding="utf-8"?>
<!-- Generator: Adobe Illustrator 23.1.1, SVG Export Plug-In . SVG Version: 6.00 Build 0)  -->
<svg version="1.1" id="Ebene_1" xmlns="http://www.w3.org/2000/svg" xmlns:xlink="http://www.w3.org/1999/xlink" x="0px" y="0px"
	 viewBox="0 0 79.89 79.89" style="enable-background:new 0 0 79.89 79.89;" xml:space="preserve">
<style type="text/css">
	.st0{fill:#ffffff;}
</style>
<g>
	<g>
		<path class="st0" d="M30.08,58.53l3.59-37.16h12.59l3.55,37.16h-7.05l-0.52-6.01h-4.5l-0.43,6.01H30.08z M38.3,46.59h3.37
			l-1.64-18.91h-0.35L38.3,46.59z"/>
	</g>
	<g>
		<path class="st0" d="M39.95,79.89C17.92,79.89,0,61.97,0,39.95S17.92,0,39.95,0c22.03,0,39.95,17.92,39.95,39.95
			S61.98,79.89,39.95,79.89z M39.95,5.04C20.7,5.04,5.04,20.7,5.04,39.95S20.7,74.86,39.95,74.86c19.25,0,34.91-15.66,34.91-34.91
			S59.19,5.04,39.95,5.04z"/>
	</g>
</g>
</svg>
