<svg xmlns="http://www.w3.org/2000/svg" xmlns:xlink="http://www.w3.org/1999/xlink" version="1.1" style="enable-background:new 0 0 85.04 85.04;" xml:space="preserve" width="31" height="31"><rect id="backgroundrect" width="100%" height="100%" x="0" y="0" fill="none" stroke="none"/>
<style type="text/css">
	.st0{fill:#274254;}
</style>

<g class="currentLayer" style=""><title>Layer 1</title><g id="svg_1" class="" transform="">
	<g id="svg_2" transform="">
		<path class="st0" d="M 11.92 23.02 V 8.37 h 2.9 v 5.87 l 1.36 -5.87 h 2.95 l -1.64 6.7 l 1.98 7.95 h -3.04 l -1.6 -7.09 v 7.09 H 11.92 Z" id="svg_3" transform=""/>
	</g>
	<g id="svg_4" transform="">
		<path class="st0" d="M 15.7 31.4 c -8.66 0 -15.7 -7.04 -15.7 -15.7 s 7.04 -15.7 15.7 -15.7 c 8.66 0 15.7 7.04 15.7 15.7 S 24.36 31.4 15.7 31.4 Z M 15.7 1.98 c -7.56 0 -13.72 6.15 -13.72 13.72 s 6.15 13.72 13.72 13.72 c 7.56 0 13.72 -6.15 13.72 -13.72 S 23.26 1.98 15.7 1.98 Z" id="svg_5" transform=""/>
	</g>
</g></g></svg>