<svg xmlns="http://www.w3.org/2000/svg" xmlns:xlink="http://www.w3.org/1999/xlink" version="1.1" style="enable-background:new 0 0 85.04 85.04;" xml:space="preserve" width="31" height="31"><rect id="backgroundrect" width="100%" height="100%" x="0" y="0" fill="none" stroke="none"/>
<style type="text/css">
	.st0{fill:#96AE24;}
	.st1{fill:#274254;}
</style>


<g class="currentLayer" style=""><title>Layer 1</title><g id="svg_1" class="" transform="">
	<g id="svg_2" transform="">
		<path class="st0" d="M 31.4 15.7 M 29.42 15.7" id="svg_3" transform=""/>
	</g>
</g><g id="svg_4" class="" transform="">
	<g id="svg_5" transform="">
		<path class="st1" d="M 12.1 23.01 V 8.36 h 3.02 l 1.35 7.01 v -7.01 h 2.83 v 14.65 h -2.87 l -1.47 -7.33 v 7.33 H 12.1 Z" id="svg_6" transform=""/>
	</g>
	<g id="svg_7" transform="">
		<path class="st1" d="M 15.7 31.4 c -8.66 0 -15.7 -7.04 -15.7 -15.7 s 7.04 -15.7 15.7 -15.7 c 8.66 0 15.7 7.04 15.7 15.7 S 24.36 31.4 15.7 31.4 Z M 15.7 1.98 c -7.56 0 -13.72 6.15 -13.72 13.72 s 6.15 13.72 13.72 13.72 c 7.56 0 13.72 -6.15 13.72 -13.72 S 23.26 1.98 15.7 1.98 Z" id="svg_8" transform=""/>
	</g>
</g></g></svg>