<svg xmlns="http://www.w3.org/2000/svg" xmlns:xlink="http://www.w3.org/1999/xlink" version="1.1" style="enable-background:new 0 0 85.04 85.04;" xml:space="preserve" width="31" height="31"><rect id="backgroundrect" width="100%" height="100%" x="0" y="0" fill="none" stroke="none"/>
<style type="text/css">
	.st0{fill:#96AE24;}
	.st1{fill:#ffffff;}
</style>


<g class="currentLayer" style=""><title>Layer 1</title><g id="svg_1" class="" transform="">
	<g id="svg_2" transform="">
		<path class="st0" d="M 31.4 15.7 M 29.42 15.7" id="svg_3" transform=""/>
	</g>
</g><g id="svg_4" class="" transform="">
	<g id="svg_5" transform="">
		<path class="st1" d="M 12.14 8.37 h 3.87 c 1.17 0 2.01 0.38 2.51 1.13 c 0.5 0.76 0.75 1.86 0.75 3.32 c 0 1.46 -0.22 2.55 -0.66 3.29 c -0.44 0.74 -1.24 1.11 -2.39 1.11 h -1.19 v 5.8 h -2.88 V 8.37 Z M 15.19 14.58 c 0.35 0 0.61 -0.07 0.78 -0.2 c 0.16 -0.13 0.27 -0.32 0.32 -0.56 c 0.05 -0.24 0.08 -0.59 0.08 -1.05 c 0 -0.61 -0.07 -1.06 -0.2 -1.33 c -0.14 -0.27 -0.41 -0.41 -0.82 -0.41 h -0.32 v 3.55 H 15.19 Z" id="svg_6" transform=""/>
	</g>
	<g id="svg_7" transform="">
		<path class="st1" d="M 15.7 31.4 c -8.66 0 -15.7 -7.04 -15.7 -15.7 s 7.04 -15.7 15.7 -15.7 c 8.66 0 15.7 7.04 15.7 15.7 S 24.36 31.4 15.7 31.4 Z M 15.7 1.98 c -7.56 0 -13.72 6.15 -13.72 13.72 s 6.15 13.72 13.72 13.72 c 7.56 0 13.72 -6.15 13.72 -13.72 S 23.26 1.98 15.7 1.98 Z" id="svg_8" transform=""/>
	</g>
</g></g></svg>
