<?xml version="1.0" encoding="utf-8"?>
<!-- Generator: Adobe Illustrator 23.0.4, SVG Export Plug-In . SVG Version: 6.00 Build 0)  -->
<svg version="1.1" id="Ebene_1" xmlns="http://www.w3.org/2000/svg" xmlns:xlink="http://www.w3.org/1999/xlink" x="0px" y="0px"
	 viewBox="0 0 170.08 170.08" style="enable-background:new 0 0 170.08 170.08;" xml:space="preserve">
<style type="text/css">
	.st0{fill:#274254;}
</style>
<g>
	<path class="st0" d="M45.11,73.64c-1.17,0-2.11,0.95-2.11,2.11v19.12c0,1.17,0.95,2.11,2.11,2.11s2.11-0.95,2.11-2.11V75.76
		C47.23,74.59,46.28,73.64,45.11,73.64z"/>
	<path class="st0" d="M68.03,72.19c-1.17,0-2.11,0.95-2.11,2.11v22.02c0,1.17,0.95,2.11,2.11,2.11s2.11-0.95,2.11-2.11V74.31
		C70.15,73.14,69.2,72.19,68.03,72.19z"/>
	<path class="st0" d="M79.49,79.47c-1.17,0-2.11,0.95-2.11,2.11v7.47c0,1.17,0.95,2.11,2.11,2.11s2.11-0.95,2.11-2.11v-7.47
		C81.6,80.42,80.65,79.47,79.49,79.47z"/>
	<path class="st0" d="M90.94,77.38c-1.17,0-2.11,0.95-2.11,2.11v11.65c0,1.17,0.95,2.11,2.11,2.11s2.11-0.95,2.11-2.11V79.49
		C93.06,78.33,92.11,77.38,90.94,77.38z"/>
	<path class="st0" d="M102.39,67.41c-1.17,0-2.11,0.95-2.11,2.11v31.58c0,1.17,0.95,2.11,2.11,2.11s2.11-0.95,2.11-2.11V69.53
		C104.51,68.36,103.56,67.41,102.39,67.41z"/>
	<path class="st0" d="M125.3,80.41c-1.17,0-2.11,0.95-2.11,2.11v5.58c0,1.17,0.95,2.11,2.11,2.11s2.11-0.95,2.11-2.11v-5.58
		C127.42,81.36,126.47,80.41,125.3,80.41z"/>
	<path class="st0" d="M113.85,74.19c-1.17,0-2.11,0.95-2.11,2.11v18.02c0,1.17,0.95,2.11,2.11,2.11s2.11-0.95,2.11-2.11V76.31
		C115.96,75.14,115.01,74.19,113.85,74.19z"/>
	<path class="st0" d="M56.57,64.71c-1.17,0-2.12,1.06-2.12,2.36v36.48c0,1.3,0.95,2.37,2.12,2.37s2.12-1.06,2.12-2.37V67.08
		C58.69,65.77,57.74,64.71,56.57,64.71z"/>
</g>
</svg>
