<?xml version="1.0" encoding="utf-8"?>
<!-- Generator: Adobe Illustrator 23.0.4, SVG Export Plug-In . SVG Version: 6.00 Build 0)  -->
<svg version="1.1" id="Ebene_1" xmlns="http://www.w3.org/2000/svg" xmlns:xlink="http://www.w3.org/1999/xlink" x="0px" y="0px"
	 viewBox="0 0 85.04 85.04" style="enable-background:new 0 0 85.04 85.04;" xml:space="preserve">
<style type="text/css">
	.st0{fill:#5F879F;}
</style>
<g>
	<g>
		<path class="st0" d="M38.24,49.84l-1.57-14.65h2.87l0.82,9.24l0.82-9.24h2.73l0.78,9.24l0.78-9.24h2.9l-1.6,14.65h-3.51
			l-0.73-7.06l-0.7,7.06H38.24z"/>
	</g>
	<g>
		<path class="st0" d="M42.52,58.22c-8.66,0-15.7-7.04-15.7-15.7s7.04-15.7,15.7-15.7c8.66,0,15.7,7.04,15.7,15.7
			S51.18,58.22,42.52,58.22z M42.52,28.8c-7.56,0-13.72,6.15-13.72,13.72s6.15,13.72,13.72,13.72c7.56,0,13.72-6.15,13.72-13.72
			S50.08,28.8,42.52,28.8z"/>
	</g>
</g>
</svg>
