<?xml version="1.0" encoding="utf-8"?>
<!-- Generator: Adobe Illustrator 23.0.4, SVG Export Plug-In . SVG Version: 6.00 Build 0)  -->
<svg version="1.1" id="Ebene_1" xmlns="http://www.w3.org/2000/svg" xmlns:xlink="http://www.w3.org/1999/xlink" x="0px" y="0px"
	 viewBox="0 0 170.08 170.08" style="enable-background:new 0 0 170.08 170.08;" xml:space="preserve">
<style type="text/css">
	.st0{fill:#96AE24;}
</style>
<g>
	<path class="st0" d="M44.94,73.36c-1.17,0-2.11,0.95-2.11,2.11V94.6c0,1.17,0.95,2.11,2.11,2.11s2.11-0.95,2.11-2.11V75.48
		C47.06,74.31,46.11,73.36,44.94,73.36z"/>
	<path class="st0" d="M67.87,71.91c-1.17,0-2.11,0.95-2.11,2.11v22.02c0,1.17,0.95,2.11,2.11,2.11s2.11-0.95,2.11-2.11V74.03
		C69.98,72.86,69.03,71.91,67.87,71.91z"/>
	<path class="st0" d="M79.32,79.19c-1.17,0-2.11,0.95-2.11,2.11v7.47c0,1.17,0.95,2.11,2.11,2.11s2.11-0.95,2.11-2.11v-7.47
		C81.43,80.14,80.49,79.19,79.32,79.19z"/>
	<path class="st0" d="M90.77,77.1c-1.17,0-2.11,0.95-2.11,2.11v11.65c0,1.17,0.95,2.11,2.11,2.11s2.11-0.95,2.11-2.11V79.22
		C92.89,78.05,91.94,77.1,90.77,77.1z"/>
	<path class="st0" d="M102.23,67.13c-1.17,0-2.11,0.95-2.11,2.11v31.58c0,1.17,0.95,2.11,2.11,2.11s2.11-0.95,2.11-2.11V69.25
		C104.34,68.08,103.39,67.13,102.23,67.13z"/>
	<path class="st0" d="M125.13,80.13c-1.17,0-2.11,0.95-2.11,2.11v5.58c0,1.17,0.95,2.11,2.11,2.11s2.11-0.95,2.11-2.11v-5.58
		C127.25,81.08,126.3,80.13,125.13,80.13z"/>
	<path class="st0" d="M113.68,73.91c-1.17,0-2.11,0.95-2.11,2.11v18.02c0,1.17,0.95,2.11,2.11,2.11s2.11-0.95,2.11-2.11V76.03
		C115.79,74.86,114.85,73.91,113.68,73.91z"/>
	<path class="st0" d="M56.41,64.43c-1.17,0-2.12,1.06-2.12,2.36v36.48c0,1.3,0.95,2.37,2.12,2.37s2.12-1.06,2.12-2.37V66.8
		C58.53,65.49,57.58,64.43,56.41,64.43z"/>
</g>
</svg>
