<?xml version="1.0" encoding="utf-8"?>
<!-- Generator: Adobe Illustrator 23.0.4, SVG Export Plug-In . SVG Version: 6.00 Build 0)  -->
<svg version="1.1" id="Ebene_1" xmlns="http://www.w3.org/2000/svg" xmlns:xlink="http://www.w3.org/1999/xlink" x="0px" y="0px"
	 viewBox="0 0 85.04 85.04" style="enable-background:new 0 0 85.04 85.04;" xml:space="preserve">
<style type="text/css">
	.st0{fill:#96AE24;}
</style>
<g>
	<g>
		<path class="st0" d="M38.96,35.19h3.87c1.17,0,2.01,0.38,2.51,1.13c0.5,0.76,0.75,1.86,0.75,3.32c0,1.46-0.22,2.55-0.66,3.29
			c-0.44,0.74-1.24,1.11-2.39,1.11h-1.19v5.8h-2.88V35.19z M42.01,41.4c0.35,0,0.61-0.07,0.78-0.2c0.16-0.13,0.27-0.32,0.32-0.56
			c0.05-0.24,0.08-0.59,0.08-1.05c0-0.61-0.07-1.06-0.2-1.33c-0.14-0.27-0.41-0.41-0.82-0.41h-0.32v3.55H42.01z"/>
	</g>
	<g>
		<path class="st0" d="M42.52,58.22c-8.66,0-15.7-7.04-15.7-15.7s7.04-15.7,15.7-15.7c8.66,0,15.7,7.04,15.7,15.7
			S51.18,58.22,42.52,58.22z M42.52,28.8c-7.56,0-13.72,6.15-13.72,13.72s6.15,13.72,13.72,13.72c7.56,0,13.72-6.15,13.72-13.72
			S50.08,28.8,42.52,28.8z"/>
	</g>
</g>
</svg>
