<?xml version="1.0" encoding="utf-8"?>
<!-- Generator: Adobe Illustrator 23.0.4, SVG Export Plug-In . SVG Version: 6.00 Build 0)  -->
<svg version="1.1" id="Ebene_1" xmlns="http://www.w3.org/2000/svg" xmlns:xlink="http://www.w3.org/1999/xlink" x="0px" y="0px"
	 viewBox="0 0 170.08 170.08" style="enable-background:new 0 0 170.08 170.08;" xml:space="preserve">
<style type="text/css">
	.st0{fill:#5F879F;}
</style>
<g>
	<g>
		<path class="st0" d="M44.94,96.22c-0.89,0-1.61-0.72-1.61-1.61V75.48c0-0.89,0.72-1.61,1.61-1.61c0.89,0,1.61,0.72,1.61,1.61V94.6
			C46.56,95.49,45.84,96.22,44.94,96.22z"/>
	</g>
	<g>
		<path class="st0" d="M67.87,97.67c-0.89,0-1.61-0.72-1.61-1.61V74.03c0-0.89,0.72-1.61,1.61-1.61s1.61,0.72,1.61,1.61v22.02
			C69.48,96.94,68.76,97.67,67.87,97.67z"/>
	</g>
	<path class="st0" d="M75.91,79.71V91.1c0,0.67,0.64,1.22,1.44,1.22s1.44-0.54,1.44-1.22v-4.54h1.18c1.14,0,1.93-0.37,2.37-1.1
		c0.44-0.73,0.66-1.82,0.66-3.27c0-1.45-0.25-2.55-0.75-3.3c-0.5-0.75-1.33-1.13-2.49-1.13h-3.85v1.87
		C75.91,79.66,75.91,79.68,75.91,79.71z M78.78,83.93v-3.53h0.32c0.41,0,0.68,0.14,0.81,0.41c0.14,0.27,0.2,0.71,0.2,1.32
		c0,0.45-0.03,0.8-0.08,1.04c-0.05,0.24-0.16,0.43-0.32,0.56c-0.16,0.13-0.42,0.2-0.77,0.2H78.78z"/>
	<path class="st0" d="M87.71,79.71V91.1c0,0.67,0.64,1.22,1.44,1.22s1.44-0.54,1.44-1.22v-4.54h1.18c1.14,0,1.93-0.37,2.37-1.1
		c0.44-0.73,0.66-1.82,0.66-3.27c0-1.45-0.25-2.55-0.75-3.3c-0.5-0.75-1.33-1.13-2.49-1.13h-3.85v1.87
		C87.72,79.66,87.71,79.68,87.71,79.71z M90.59,83.93v-3.53h0.32c0.41,0,0.68,0.14,0.81,0.41c0.14,0.27,0.2,0.71,0.2,1.32
		c0,0.45-0.03,0.8-0.08,1.04c-0.05,0.24-0.16,0.43-0.32,0.56c-0.16,0.13-0.42,0.2-0.77,0.2H90.59z"/>
	<g>
		<path class="st0" d="M102.23,102.45c-0.89,0-1.61-0.72-1.61-1.61V69.25c0-0.89,0.72-1.61,1.61-1.61c0.89,0,1.61,0.72,1.61,1.61
			v31.58C103.84,101.72,103.12,102.45,102.23,102.45z"/>
	</g>
	<g>
		<path class="st0" d="M125.13,89.44c-0.89,0-1.61-0.72-1.61-1.61v-5.58c0-0.89,0.72-1.61,1.61-1.61c0.89,0,1.61,0.72,1.61,1.61
			v5.58C126.75,88.72,126.03,89.44,125.13,89.44z"/>
	</g>
	<g>
		<path class="st0" d="M113.68,95.67c-0.89,0-1.61-0.72-1.61-1.61V76.03c0-0.89,0.72-1.61,1.61-1.61c0.89,0,1.61,0.72,1.61,1.61
			v18.02C115.3,94.94,114.57,95.67,113.68,95.67z"/>
	</g>
	<g>
		<path class="st0" d="M56.41,105.15c-0.9,0-1.62-0.83-1.62-1.86V66.8c0-1.03,0.73-1.86,1.62-1.86c0.9,0,1.62,0.83,1.62,1.86v36.48
			C58.03,104.31,57.3,105.15,56.41,105.15z"/>
	</g>
</g>
</svg>
