<svg xmlns="http://www.w3.org/2000/svg" xmlns:xlink="http://www.w3.org/1999/xlink" version="1.1" style="enable-background:new 0 0 170.08 170.08;" xml:space="preserve" width="83" height="40"><rect id="backgroundrect" width="100%" height="100%" x="0" y="0" fill="none" stroke="none"/>
<style type="text/css">
	.st0{fill:#274254;}
</style>

<g class="currentLayer" style=""><title>Layer 1</title><g id="svg_1" class="" transform="">
	<g id="svg_2" transform="">
		<path class="st0" d="M 1.61 31.28 c -0.89 0 -1.61 -0.72 -1.61 -1.61 V 10.54 c 0 -0.89 0.72 -1.61 1.61 -1.61 c 0.89 0 1.61 0.72 1.61 1.61 V 29.66 C 3.23 30.55 2.51 31.28 1.61 31.28 Z" id="svg_3" transform=""/>
	</g>
	<g id="svg_4" transform="">
		<path class="st0" d="M 24.54 32.73 c -0.89 0 -1.61 -0.72 -1.61 -1.61 V 9.09 c 0 -0.89 0.72 -1.61 1.61 -1.61 s 1.61 0.72 1.61 1.61 v 22.02 C 26.15 32 25.43 32.73 24.54 32.73 Z" id="svg_5" transform=""/>
	</g>
	<path class="st0" d="M 32.58 14.77 V 26.16 c 0 0.67 0.64 1.22 1.44 1.22 s 1.44 -0.54 1.44 -1.22 v -4.54 h 1.18 c 1.14 0 1.93 -0.37 2.37 -1.1 c 0.44 -0.73 0.66 -1.82 0.66 -3.27 c 0 -1.45 -0.25 -2.55 -0.75 -3.3 c -0.5 -0.75 -1.33 -1.13 -2.49 -1.13 h -3.85 v 1.87 C 32.58 14.72 32.58 14.74 32.58 14.77 Z M 35.45 18.99 v -3.53 h 0.32 c 0.41 0 0.68 0.14 0.81 0.41 c 0.14 0.27 0.2 0.71 0.2 1.32 c 0 0.45 -0.03 0.8 -0.08 1.04 c -0.05 0.24 -0.16 0.43 -0.32 0.56 c -0.16 0.13 -0.42 0.2 -0.77 0.2 H 35.45 Z" id="svg_6" transform=""/>
	<path class="st0" d="M 44.38 14.77 V 26.16 c 0 0.67 0.64 1.22 1.44 1.22 s 1.44 -0.54 1.44 -1.22 v -4.54 h 1.18 c 1.14 0 1.93 -0.37 2.37 -1.1 c 0.44 -0.73 0.66 -1.82 0.66 -3.27 c 0 -1.45 -0.25 -2.55 -0.75 -3.3 c -0.5 -0.75 -1.33 -1.13 -2.49 -1.13 h -3.85 v 1.87 C 44.39 14.72 44.38 14.74 44.38 14.77 Z M 47.26 18.99 v -3.53 h 0.32 c 0.41 0 0.68 0.14 0.81 0.41 c 0.14 0.27 0.2 0.71 0.2 1.32 c 0 0.45 -0.03 0.8 -0.08 1.04 c -0.05 0.24 -0.16 0.43 -0.32 0.56 c -0.16 0.13 -0.42 0.2 -0.77 0.2 H 47.26 Z" id="svg_7" transform=""/>
	<g id="svg_8" transform="">
		<path class="st0" d="M 58.9 37.51 c -0.89 0 -1.61 -0.72 -1.61 -1.61 V 4.31 c 0 -0.89 0.72 -1.61 1.61 -1.61 c 0.89 0 1.61 0.72 1.61 1.61 v 31.58 C 60.51 36.78 59.79 37.51 58.9 37.51 Z" id="svg_9" transform=""/>
	</g>
	<g id="svg_10" transform="">
		<path class="st0" d="M 81.8 24.5 c -0.89 0 -1.61 -0.72 -1.61 -1.61 v -5.58 c 0 -0.89 0.72 -1.61 1.61 -1.61 c 0.89 0 1.61 0.72 1.61 1.61 v 5.58 C 83.42 23.78 82.7 24.5 81.8 24.5 Z" id="svg_11" transform=""/>
	</g>
	<g id="svg_12" transform="">
		<path class="st0" d="M 70.35 30.73 c -0.89 0 -1.61 -0.72 -1.61 -1.61 V 11.09 c 0 -0.89 0.72 -1.61 1.61 -1.61 c 0.89 0 1.61 0.72 1.61 1.61 v 18.02 C 71.97 30 71.24 30.73 70.35 30.73 Z" id="svg_13" transform=""/>
	</g>
	<g id="svg_14" transform="">
		<path class="st0" d="M 13.08 40.21 c -0.9 0 -1.62 -0.83 -1.62 -1.86 V 1.86 c 0 -1.03 0.73 -1.86 1.62 -1.86 c 0.9 0 1.62 0.83 1.62 1.86 v 36.48 C 14.7 39.37 13.97 40.21 13.08 40.21 Z" id="svg_15" transform=""/>
	</g>
</g></g></svg>